<svg xmlns="http://www.w3.org/2000/svg" version="1.1" xmlns:xlink="http://www.w3.org/1999/xlink" xmlns:svgjs="http://svgjs.dev/svgjs" width="1000" height="1000" viewBox="0 0 1000 1000"><g transform="matrix(1,0,0,1,-0.14221556886212738,-0.14221556886229791)"><svg viewBox="0 0 334 334" data-background-color="#ffffff" preserveAspectRatio="xMidYMid meet" height="1000" width="1000" xmlns="http://www.w3.org/2000/svg" xmlns:xlink="http://www.w3.org/1999/xlink"><g id="tight-bounds" transform="matrix(1,0,0,1,0.04749999999998522,0.04750000000001364)"><svg viewBox="0 0 333.90454557049503 333.90454557049503" height="333.90454557049503" width="333.90454557049503"><g><svg></svg></g><g><svg viewBox="0 0 333.90454557049503 333.90454557049503" height="333.90454557049503" width="333.90454557049503"><g><path d="M0 166.952c0-92.205 74.747-166.952 166.952-166.952 92.205 0 166.952 74.747 166.953 166.952 0 92.205-74.747 166.952-166.953 166.953-92.205 0-166.952-74.747-166.952-166.953zM166.952 316.63c82.665 0 149.677-67.013 149.678-149.678 0-82.665-67.013-149.677-149.678-149.677-82.665 0-149.677 67.013-149.677 149.677 0 82.665 67.013 149.677 149.677 149.678z" data-fill-palette-color="tertiary" fill="#ff0000" stroke="transparent"></path><ellipse rx="160.27418187383762" ry="160.27418187383762" cx="166.95227278524752" cy="166.95227278524752" fill="#ff0000" stroke="transparent" stroke-width="0" fill-opacity="1" data-fill-palette-color="tertiary"></ellipse></g><g transform="matrix(1,0,0,1,70.03112405705103,71.17305217166896)"><svg viewBox="0 0 193.84229745639297 191.55844122715712" height="191.55844122715712" width="193.84229745639297"><g><svg viewBox="0 0 193.84229745639297 191.55844122715712" height="191.55844122715712" width="193.84229745639297"><g><svg viewBox="0 0 193.84229745639297 191.55844122715712" height="191.55844122715712" width="193.84229745639297"><g><svg viewBox="0 0 193.84229745639297 191.55844122715712" height="191.55844122715712" width="193.84229745639297"><g id="textblocktransform"><svg viewBox="0 0 193.84229745639297 191.55844122715712" height="191.55844122715712" width="193.84229745639297" id="textblock"><g><svg viewBox="0 0 193.84229745639297 191.55844122715712" height="191.55844122715712" width="193.84229745639297"><g transform="matrix(1,0,0,1,0,0)"><svg width="193.84229745639297" viewBox="2.299999952316284 -33 33.95000076293945 33.54999923706055" height="191.55844122715712" data-palette-color="#ffffff"><path d="M29.15 0L29.15-0.5 29.4-0.5Q29.75-0.5 30.05-0.8 30.35-1.1 30.58-1.5 30.8-1.9 30.9-2.38 31-2.85 31-3.25L31-3.25 31-29.55 18.1 0.55 5.85-28 5.85-3.25Q5.85-2.85 5.95-2.38 6.05-1.9 6.28-1.5 6.5-1.1 6.8-0.8 7.1-0.5 7.5-0.5L7.5-0.5 7.75-0.5 7.75 0 2.3 0 2.3-0.5 2.55-0.5Q2.9-0.5 3.2-0.8 3.5-1.1 3.7-1.5 3.9-1.9 4-2.38 4.1-2.85 4.1-3.25L4.1-3.25 4.1-29.9Q4.1-30.25 4-30.7 3.9-31.15 3.7-31.55 3.5-31.95 3.2-32.23 2.9-32.5 2.55-32.5L2.55-32.5 2.3-32.5 2.3-33 7.4-33 19-5.65 30.6-33 36.25-33 36.25-32.5 36-32.5Q35.6-32.5 35.3-32.23 35-31.95 34.77-31.55 34.55-31.15 34.45-30.7 34.35-30.25 34.35-29.9L34.35-29.9 34.35-3.25Q34.35-2.85 34.45-2.38 34.55-1.9 34.77-1.5 35-1.1 35.3-0.8 35.6-0.5 36-0.5L36-0.5 36.25-0.5 36.25 0 29.15 0Z" opacity="1" transform="matrix(1,0,0,1,0,0)" fill="#ffffff" class="undefined-text-0" data-fill-palette-color="quaternary" id="text-0"></path></svg></g></svg></g></svg></g></svg></g><g></g></svg></g></svg></g></svg></g></svg></g><defs></defs></svg><rect width="333.90454557049503" height="333.90454557049503" fill="none" stroke="none" visibility="hidden"></rect></g></svg></g></svg>